<?xml version="1.0" standalone="no"?>
<!DOCTYPE svg PUBLIC "-//W3C//DTD SVG 20010904//EN"
 "http://www.w3.org/TR/2001/REC-SVG-20010904/DTD/svg10.dtd">
<svg version="1.0" xmlns="http://www.w3.org/2000/svg"
 width="1024.000000pt" height="1024.000000pt" viewBox="0 0 1024.000000 1024.000000"
 preserveAspectRatio="xMidYMid meet">
<metadata>
Created by potrace 1.14, written by Peter Selinger 2001-2017
</metadata>
<g transform="translate(0.000000,1024.000000) scale(0.100000,-0.100000)"
fill="#000000" stroke="none">
<path d="M989 6476 c-2 -2 -26 -6 -54 -10 -168 -19 -314 -75 -460 -176 -76
-52 -197 -179 -253 -264 -86 -132 -150 -315 -168 -482 -13 -122 -11 -780 3
-884 41 -301 181 -543 415 -716 105 -77 299 -162 409 -179 136 -21 182 -24
324 -20 88 2 169 5 180 8 11 3 40 8 65 12 61 10 207 58 261 85 243 124 393
341 453 656 13 64 21 192 13 200 -5 5 -588 6 -593 1 -3 -3 -7 -24 -10 -48 -35
-328 -152 -451 -424 -445 -86 2 -116 7 -168 28 -114 47 -197 129 -252 251 -58
129 -62 165 -64 586 -1 211 2 413 6 450 18 143 88 301 165 373 78 72 165 105
286 106 143 1 260 -40 332 -115 66 -70 121 -233 124 -374 l1 -25 303 0 302 1
-1 25 c-9 212 -98 469 -212 610 -190 236 -449 344 -838 348 -78 1 -143 0 -145
-2z"/>
<path d="M3425 6473 c-348 -37 -638 -219 -818 -513 -65 -106 -133 -292 -140
-380 -1 -15 -4 -17 -15 -8 -8 7 -16 8 -20 2 -8 -10 -28 -17 -54 -18 -10 0 -18
-4 -18 -9 0 -5 -7 -7 -15 -3 -8 3 -15 1 -15 -5 0 -6 -4 -7 -10 -4 -5 3 -10 1
-10 -4 0 -6 -3 -10 -7 -9 -5 1 -18 -3 -29 -10 -12 -6 -24 -8 -28 -5 -3 3 -6 0
-6 -7 0 -7 -3 -10 -6 -7 -4 4 -19 -2 -34 -13 -15 -11 -30 -17 -34 -13 -3 3 -6
1 -6 -6 0 -8 -6 -11 -16 -7 -8 3 -12 2 -9 -4 3 -5 -10 -16 -30 -26 -19 -9 -35
-20 -35 -25 0 -5 -7 -9 -15 -9 -7 0 -19 -8 -24 -17 -6 -10 -11 -14 -11 -9 0 4
-13 -6 -30 -24 -16 -18 -30 -29 -30 -24 0 4 -11 -6 -23 -24 -13 -17 -26 -30
-28 -28 -2 2 -14 -7 -27 -20 -12 -13 -20 -24 -17 -24 3 0 -10 -15 -29 -34 -19
-19 -32 -37 -29 -40 3 -2 -5 -10 -17 -16 -12 -6 -19 -14 -16 -17 2 -3 -4 -14
-14 -26 -11 -11 -17 -25 -13 -30 3 -6 2 -7 -4 -4 -6 4 -22 -16 -37 -43 -15
-28 -32 -50 -37 -50 -6 0 -7 -5 -4 -10 3 -6 -3 -23 -14 -39 -11 -15 -18 -31
-14 -35 3 -3 1 -6 -6 -6 -7 0 -9 -4 -6 -10 3 -6 2 -10 -3 -10 -5 0 -12 -9 -15
-20 -3 -11 -1 -18 4 -14 5 3 6 -2 3 -10 -3 -9 -10 -16 -14 -16 -4 0 -13 -14
-19 -31 -9 -25 -8 -30 3 -26 7 3 19 0 25 -6 8 -8 11 -7 11 4 0 12 2 12 10 -1
7 -11 10 -11 10 -2 0 7 5 10 11 7 9 -6 199 -9 225 -4 5 1 14 1 19 -1 13 -2
128 -2 140 0 6 1 12 2 15 1 19 -7 140 -4 140 3 0 4 7 5 16 2 14 -5 15 -4 5 8
-11 13 -9 15 8 11 12 -2 19 0 16 6 -6 8 8 13 28 10 5 -1 6 2 3 7 -2 4 4 14 16
21 11 7 17 8 14 2 -4 -7 -1 -8 8 -5 8 3 12 12 9 20 -3 8 -1 14 5 14 6 0 12 -6
15 -12 3 -10 7 -10 19 0 13 10 17 10 21 0 3 -8 6 -6 6 5 1 14 5 16 19 9 20
-11 45 -5 36 9 -3 5 0 9 5 9 7 0 11 -24 12 -57 2 -146 57 -359 125 -483 81
-147 208 -290 337 -378 66 -46 192 -108 267 -132 135 -44 226 -55 425 -54 211
0 351 31 517 114 77 38 180 108 228 153 21 20 30 22 50 14 29 -12 50 -18 68
-19 6 -1 12 -6 12 -11 0 -5 7 -7 15 -3 8 3 15 1 15 -4 0 -5 7 -7 15 -4 8 4 15
2 15 -2 0 -5 15 -10 33 -11 69 -6 77 -7 77 -16 0 -5 6 -7 14 -4 8 3 17 1 20
-6 3 -9 5 -9 5 0 1 8 10 9 29 4 15 -4 33 -6 40 -4 6 3 12 1 12 -5 0 -5 65 -10
146 -11 101 -2 144 1 139 8 -3 6 -1 11 4 11 7 0 11 -32 11 -86 l0 -85 568 4
c312 2 585 7 607 12 417 79 744 374 846 764 32 118 34 160 34 579 0 215 2 388
3 382 2 -5 13 -10 25 -10 12 0 31 -7 41 -15 10 -8 23 -12 27 -9 5 3 9 0 9 -5
0 -6 7 -11 15 -11 8 0 15 -5 15 -11 0 -5 5 -7 11 -4 6 4 17 -1 25 -11 9 -11
13 -13 9 -4 -4 8 2 5 13 -7 22 -25 37 -31 27 -10 -4 6 2 2 13 -10 11 -13 25
-23 32 -23 6 0 20 -9 32 -20 12 -11 28 -20 35 -20 7 0 13 -5 13 -12 0 -6 3 -9
6 -6 3 3 16 -4 29 -16 39 -35 54 -46 65 -46 5 0 10 -4 10 -10 0 -5 6 -10 14
-10 7 0 24 -13 37 -28 13 -16 40 -39 59 -53 19 -13 42 -32 51 -41 9 -10 21
-18 27 -18 5 0 13 -7 16 -16 3 -8 10 -12 16 -9 5 3 10 -1 10 -10 0 -12 5 -15
17 -11 10 4 14 4 10 0 -9 -9 33 -45 44 -38 5 3 9 -3 9 -12 0 -10 3 -14 6 -11
4 4 15 -3 25 -14 9 -11 19 -19 21 -18 5 5 108 -65 108 -74 0 -4 4 -6 9 -2 5 3
17 -5 26 -17 8 -13 19 -22 23 -21 13 5 42 -8 42 -18 0 -6 5 -7 10 -4 6 3 10 1
10 -5 0 -7 6 -10 14 -7 8 3 17 0 20 -8 3 -8 15 -19 27 -25 17 -10 20 -9 13 2
-4 7 2 4 14 -6 12 -11 22 -15 22 -11 0 5 7 0 16 -11 8 -10 13 -13 9 -6 -3 6
-1 12 4 12 6 0 11 -4 11 -10 0 -5 7 -10 15 -10 8 0 15 -6 15 -12 0 -10 2 -10
9 0 7 11 9 11 14 -2 4 -9 13 -13 22 -10 8 3 15 1 15 -5 0 -6 14 -11 30 -11 17
0 30 -5 30 -11 0 -5 3 -8 8 -6 4 3 18 0 32 -6 25 -10 68 -18 103 -18 9 0 17
-4 17 -10 0 -5 5 -9 11 -9 5 0 7 6 3 13 -6 10 -4 10 7 0 7 -7 25 -13 39 -13
14 0 32 -6 39 -12 11 -10 13 -10 7 0 -4 6 -2 12 3 12 6 0 11 -5 11 -11 0 -8 6
-7 17 2 11 10 14 10 9 2 -9 -17 6 -17 23 0 9 7 12 8 7 0 -4 -8 32 -11 138 -12
109 -1 145 1 149 11 4 10 6 10 6 -1 1 -11 4 -11 18 0 15 12 16 12 8 -1 -7 -13
-6 -13 7 -2 13 10 17 10 21 0 4 -10 6 -10 6 0 1 7 15 12 37 12 25 0 33 3 28
13 -6 9 -4 9 8 -1 12 -9 17 -10 20 -1 2 6 18 12 36 12 18 1 32 6 32 10 0 5 7
7 15 3 8 -3 15 -1 15 3 0 5 7 12 16 15 10 4 13 2 9 -7 -4 -6 3 -1 14 12 12 13
21 18 21 11 0 -10 3 -10 15 0 8 7 15 9 15 4 0 -5 4 -3 9 5 5 8 17 16 27 17 9
2 20 7 23 12 3 5 16 12 29 16 12 4 22 12 22 17 0 6 5 7 10 4 6 -3 10 -1 10 4
0 6 7 11 15 11 7 0 19 8 24 18 6 9 11 14 11 10 0 -8 28 12 64 47 11 11 40 36
63 56 23 20 39 40 36 43 -4 3 1 6 10 6 9 0 19 5 23 12 5 7 3 8 -6 3 -9 -5 -11
-4 -6 3 4 7 14 12 22 12 8 0 12 4 9 10 -3 5 3 15 15 22 11 7 20 18 20 24 0 7
7 15 16 18 9 4 14 9 11 12 -3 3 5 16 18 29 14 12 22 25 18 28 -3 4 2 9 11 13
9 3 13 10 10 15 -3 5 -1 9 4 9 6 0 13 11 16 25 4 16 11 23 18 19 7 -5 9 0 6
14 -4 12 -2 20 3 16 5 -3 9 0 9 6 0 6 7 18 15 27 8 8 13 19 10 24 -4 5 -1 9 4
9 6 0 10 3 10 8 -3 19 2 33 10 27 6 -3 8 4 6 15 -2 11 0 20 6 20 5 0 9 9 9 20
0 11 4 20 9 20 6 0 8 9 6 20 -2 11 1 20 6 20 6 0 7 5 4 10 -3 6 -1 10 5 10 6
0 8 5 5 10 -3 6 0 10 7 10 10 0 10 2 -1 9 -9 6 -10 11 -2 15 6 4 9 12 6 17 -4
5 -1 9 5 9 6 0 9 4 5 9 -3 5 -1 12 5 16 7 4 6 13 -1 27 -9 17 -9 20 3 15 10
-3 14 1 13 16 -1 12 2 30 7 41 8 14 7 17 -3 11 -8 -5 -10 -4 -5 3 10 17 17 52
19 97 1 22 6 46 10 53 5 7 3 12 -4 12 -9 0 -10 3 -2 11 6 6 7 25 3 49 -5 26
-3 41 4 44 6 2 1 3 -11 3 -12 -1 -19 -6 -15 -12 3 -6 0 -5 -9 1 -8 6 -27 11
-44 10 -16 0 -36 6 -43 14 -8 8 -11 9 -7 3 8 -16 -7 -17 -23 -1 -9 9 -12 9
-12 -1 0 -11 -3 -11 -17 0 -15 12 -16 12 -8 -1 8 -13 6 -13 -8 -1 -9 7 -23 11
-32 8 -8 -4 -17 -2 -19 2 -3 5 -19 7 -36 5 -17 -2 -29 0 -26 4 2 4 -4 8 -15 8
-10 0 -19 -5 -19 -11 0 -5 -5 -3 -10 5 -5 8 -10 11 -10 6 0 -5 -7 -3 -15 4 -9
8 -15 8 -15 2 0 -7 -10 -8 -29 -2 -16 4 -32 6 -35 2 -3 -3 -6 1 -6 9 0 11 -2
11 -10 -1 -8 -13 -10 -13 -10 -1 0 11 -3 12 -11 4 -12 -12 -42 -6 -34 6 9 16
-21 6 -40 -12 -11 -11 -14 -17 -7 -13 8 5 12 0 12 -14 0 -13 -4 -19 -12 -14
-7 4 -8 3 -4 -4 12 -19 16 -52 6 -52 -4 0 -7 -8 -5 -17 1 -10 -2 -24 -8 -30
-6 -9 -5 -13 4 -13 11 0 11 -2 -1 -10 -8 -5 -11 -10 -6 -10 5 0 4 -6 -1 -12
-6 -7 -9 -24 -8 -36 1 -13 -4 -26 -12 -29 -7 -3 -10 -9 -7 -14 3 -6 0 -16 -6
-24 -7 -8 -9 -15 -4 -15 4 0 0 -6 -11 -13 -10 -8 -15 -19 -11 -25 4 -7 2 -12
-4 -12 -6 0 -8 -4 -5 -10 3 -5 2 -10 -4 -10 -5 0 -13 -10 -17 -22 -4 -13 -6
-23 -4 -23 4 0 -36 -48 -75 -88 -16 -18 -29 -34 -30 -37 0 -3 -3 -4 -7 -3 -5
2 -8 -2 -8 -7 0 -14 -37 -50 -44 -42 -3 3 -6 1 -6 -5 0 -18 -145 -107 -160
-98 -4 3 -11 -3 -14 -12 -6 -15 -8 -15 -16 -3 -7 11 -10 12 -10 2 0 -7 -4 -10
-10 -7 -5 3 -10 1 -10 -6 0 -8 -5 -7 -17 2 -11 10 -14 10 -9 2 8 -15 6 -15
-85 -18 -37 -1 -72 -6 -78 -9 -6 -4 -11 -3 -11 2 0 6 -8 8 -19 5 -10 -3 -22 0
-26 7 -5 8 -10 8 -21 -1 -10 -8 -14 -8 -14 0 0 6 -17 11 -38 11 -21 0 -44 6
-51 13 -11 10 -12 9 -6 -3 7 -12 5 -12 -11 1 -10 9 -24 15 -30 12 -7 -2 -28 5
-49 17 -20 11 -34 16 -31 11 3 -5 -5 -4 -19 2 -14 7 -25 15 -25 20 0 4 -9 7
-20 7 -11 0 -20 5 -20 10 0 6 -9 10 -20 10 -11 0 -20 5 -20 10 0 6 -7 10 -15
10 -8 0 -15 5 -15 12 0 6 -3 8 -7 5 -3 -4 -16 1 -27 12 -12 10 -38 28 -58 39
-21 10 -35 22 -31 26 3 3 -1 6 -10 6 -10 0 -17 5 -17 10 0 6 -7 10 -15 10 -8
0 -19 9 -25 20 -6 11 -17 20 -25 20 -8 0 -15 4 -15 8 0 5 -11 15 -25 22 -13 7
-22 17 -20 21 3 4 -3 10 -14 14 -11 3 -22 12 -25 20 -3 8 -12 15 -21 15 -8 0
-15 5 -15 10 0 6 -7 10 -17 10 -9 0 -13 3 -10 7 4 3 -7 14 -23 24 -17 11 -30
23 -30 29 0 5 -7 6 -17 3 -11 -4 -14 -3 -9 5 4 7 1 12 -9 12 -9 0 -13 5 -10
10 3 6 -2 10 -12 10 -10 0 -25 9 -33 20 -8 11 -20 20 -27 20 -7 0 -13 5 -13
11 0 5 -4 7 -10 4 -5 -3 -10 -2 -10 3 0 10 -57 49 -92 64 -10 4 -18 12 -18 18
0 5 -3 10 -7 9 -15 -2 -53 13 -53 21 0 4 -13 13 -30 20 -16 7 -30 17 -30 22 0
5 -4 7 -9 3 -5 -3 -17 3 -27 12 -10 10 -19 17 -20 16 -8 -4 -64 22 -64 30 0 4
-4 5 -10 2 -6 -3 -10 -2 -10 4 0 6 -7 7 -17 4 -12 -5 -14 -3 -8 7 6 9 4 12 -6
8 -8 -3 -23 0 -34 8 -10 8 -27 14 -37 14 -10 0 -18 6 -18 13 0 8 -4 7 -10 -3
-5 -8 -10 -10 -10 -5 0 6 -9 16 -21 23 -12 8 -18 9 -14 3 3 -6 1 -11 -4 -11
-6 0 -11 5 -11 11 0 5 -4 8 -9 4 -5 -3 -12 -1 -16 4 -3 6 -12 8 -20 4 -8 -3
-15 -1 -15 4 0 5 -15 9 -34 8 -20 0 -32 3 -29 9 4 5 -1 7 -10 3 -10 -4 -17 -1
-17 6 0 8 -3 8 -9 -2 -5 -8 -10 -9 -12 -3 -2 6 -23 13 -46 14 -24 2 -43 7 -43
12 0 5 -7 3 -15 -4 -8 -7 -15 -8 -15 -2 0 6 -62 10 -165 11 -158 0 -167 2
-198 24 -62 46 -163 96 -256 127 -171 55 -209 58 -808 59 l-533 1 0 -102 c0
-57 -1 -467 -1 -911 0 -553 -3 -806 -10 -801 -17 10 -129 10 -133 -1 -3 -5 -5
-4 -5 3 -1 7 -6 10 -11 7 -6 -4 -18 -1 -27 7 -12 9 -15 9 -9 1 4 -7 2 -13 -3
-13 -6 0 -11 5 -11 11 0 8 -4 8 -13 1 -8 -7 -18 -6 -31 4 -14 10 -23 11 -33 3
-8 -7 -13 -8 -13 -1 0 5 -7 13 -16 16 -10 4 -13 2 -8 -7 5 -9 4 -9 -7 1 -24
22 -42 15 -36 -16 4 -19 -1 -35 -15 -52 -11 -14 -17 -19 -13 -12 33 63 46 767
18 962 -60 422 -328 748 -722 880 -48 16 -103 32 -122 35 -19 2 -61 9 -94 14
-56 8 -263 11 -330 4z m277 -478 c197 -51 324 -207 373 -458 15 -79 22 -647 8
-647 -4 0 -7 39 -6 86 1 78 -1 89 -20 105 -60 51 -70 58 -79 53 -4 -3 -7 0 -6
7 2 7 -7 18 -19 24 -13 5 -23 13 -23 17 0 5 -7 8 -16 8 -8 0 -13 4 -9 9 3 5
-5 11 -17 13 -13 2 -22 9 -20 16 1 8 -2 11 -7 8 -5 -4 -16 0 -24 8 -8 8 -17
12 -21 9 -3 -4 -6 2 -6 13 0 16 -2 17 -10 4 -8 -13 -10 -13 -10 2 0 9 -10 18
-22 20 -13 2 -22 9 -20 16 1 8 -2 11 -7 8 -5 -4 -15 0 -23 7 -7 8 -19 12 -27
9 -8 -3 -11 0 -7 7 5 7 -1 11 -13 11 -12 0 -21 4 -21 8 0 11 -56 43 -64 35 -3
-3 -6 -1 -6 5 0 7 -7 12 -16 12 -8 0 -12 4 -9 10 3 5 0 7 -8 4 -8 -3 -21 2
-30 10 -8 8 -17 12 -21 9 -3 -4 -6 -1 -6 5 0 6 -7 9 -17 5 -11 -4 -14 -3 -9 5
6 11 -20 18 -47 13 -5 -1 -6 3 -3 8 3 5 -1 12 -10 15 -8 3 -12 2 -9 -4 3 -6
-1 -7 -9 -4 -9 3 -16 10 -16 16 0 5 -6 8 -12 7 -25 -3 -39 1 -34 10 3 5 -4 9
-17 9 -30 0 -51 5 -58 15 -3 5 -20 9 -37 9 -17 1 -29 4 -27 8 3 4 -15 8 -38 8
-38 1 -45 -2 -54 -26 -21 -52 -14 11 8 84 58 189 162 309 309 358 88 29 205
33 292 11z m2375 -33 c7 -5 6 -11 -3 -20 -8 -7 -14 -9 -14 -5 0 4 -7 -3 -16
-15 -8 -12 -20 -19 -26 -16 -6 4 -8 3 -5 -3 8 -12 -57 -85 -67 -75 -4 4 -6 2
-4 -4 3 -10 -30 -60 -60 -91 -7 -7 -10 -13 -6 -13 4 0 1 -6 -8 -12 -8 -7 -24
-29 -34 -48 -11 -19 -26 -41 -34 -48 -8 -8 -9 -11 -3 -7 9 4 11 1 7 -9 -3 -9
-10 -13 -15 -10 -5 3 -9 -1 -9 -8 0 -19 -23 -68 -32 -68 -4 0 -5 -7 -2 -15 4
-8 1 -15 -4 -15 -6 0 -9 -9 -7 -20 2 -11 0 -18 -4 -15 -28 16 -31 -63 -29
-612 2 -450 5 -563 15 -567 7 -3 13 -2 13 2 0 4 19 6 43 6 40 -2 76 15 88 41
2 6 7 9 12 7 4 -1 7 5 7 13 0 8 5 15 10 15 6 0 10 7 10 16 0 8 5 12 10 9 6 -3
10 -2 10 4 0 6 11 21 24 34 14 14 22 28 19 31 -4 3 0 6 7 6 7 0 10 3 7 7 -4 3
2 12 13 20 11 8 20 22 20 31 0 10 9 23 21 30 12 8 18 19 15 28 -3 8 1 14 10
14 8 0 12 5 9 10 -3 6 -1 10 5 10 6 0 9 4 5 9 -3 5 -1 12 5 16 6 4 8 10 5 15
-3 4 2 11 11 14 8 3 13 10 9 15 -3 6 3 14 12 20 13 7 14 10 4 11 -9 0 -6 7 9
20 13 11 18 20 12 20 -7 0 -6 10 3 28 8 15 19 40 24 55 6 16 15 26 19 23 5 -3
9 0 10 7 1 7 4 30 6 52 2 22 5 40 6 40 1 0 8 32 13 67 2 10 6 20 9 24 4 3 4
13 1 22 -4 9 -2 13 4 9 6 -4 9 5 7 23 -2 17 1 30 6 30 5 0 7 6 4 14 -3 8 -1
17 5 20 6 4 7 14 4 23 -4 11 -3 14 5 9 7 -4 12 -1 12 10 0 9 8 23 18 31 9 8
11 11 4 8 -11 -6 -11 -3 -1 13 7 12 17 18 23 15 5 -4 6 -1 1 7 -5 8 3 23 25
41 18 16 29 29 24 29 -4 0 12 19 36 43 25 23 48 41 52 40 5 -2 8 1 8 7 0 5 9
14 21 20 l20 11 -3 -373 c-4 -338 -6 -380 -24 -443 -41 -143 -133 -270 -238
-330 -87 -50 -157 -62 -366 -64 l-190 -2 0 605 c-1 334 -1 676 -1 761 0 85 0
200 1 255 l0 101 188 -1 c104 -1 193 -5 199 -8z m-3620 -447 c-3 -27 -16 -45
-18 -27 -5 43 0 64 11 57 6 -4 9 -17 7 -30z m627 -50 c-2 -20 -5 -39 -7 -43
-3 -4 -1 -16 3 -27 4 -11 4 -30 -1 -42 -5 -13 -5 -23 -1 -23 6 0 7 -99 2 -107
-3 -4 -3 -42 0 -48 2 -6 2 -184 0 -187 -5 -9 -5 -58 1 -58 3 0 5 -12 3 -27 -4
-35 5 -65 17 -58 5 4 9 1 9 -6 0 -7 3 -10 6 -6 7 6 80 -28 106 -51 10 -8 23
-12 31 -9 7 3 19 -4 26 -14 6 -11 16 -17 21 -14 6 3 10 1 10 -4 0 -6 9 -11 20
-11 11 0 20 -7 20 -16 0 -8 4 -13 9 -10 5 3 20 -5 35 -19 15 -13 29 -25 31
-25 3 0 10 0 15 0 6 0 10 -7 10 -15 0 -8 9 -15 20 -15 11 0 20 -4 20 -10 0 -5
7 -10 16 -10 8 0 12 -4 9 -10 -6 -9 7 -14 21 -7 3 1 10 -6 15 -16 6 -9 15 -14
21 -11 6 4 8 3 5 -3 -4 -6 1 -17 10 -24 14 -12 16 -12 9 1 -4 8 1 5 10 -7 9
-13 23 -23 31 -23 8 0 11 -4 8 -10 -3 -5 -1 -10 6 -10 6 0 19 -8 28 -18 9 -11
26 -24 39 -31 12 -7 20 -16 17 -20 -2 -5 9 -11 25 -15 17 -3 29 -9 28 -13 -2
-5 1 -9 5 -10 4 -1 16 -11 25 -23 18 -22 62 -35 62 -19 0 6 4 8 9 5 4 -3 13 6
19 19 7 14 16 25 22 25 6 0 8 5 5 10 -3 6 -1 10 6 10 7 0 9 3 6 6 -4 4 1 14
11 23 9 9 28 41 42 71 14 30 29 58 34 61 5 4 6 16 3 28 -6 23 8 38 18 21 8
-13 -27 -104 -68 -178 -80 -144 -233 -232 -404 -232 -257 0 -435 161 -499 452
-13 58 -17 141 -18 413 -1 187 0 359 2 383 5 51 20 57 16 7z m-636 -35 c-1
-22 -4 -37 -6 -35 -8 8 -7 75 1 75 4 0 7 -18 5 -40z m-1 -82 c-3 -7 -5 -2 -5
12 0 14 2 19 5 13 2 -7 2 -19 0 -25z m3 -28 c0 -5 -2 -10 -4 -10 -3 0 -8 5
-11 10 -3 6 -1 10 4 10 6 0 11 -4 11 -10z m-2 -44 c-1 -14 -5 -23 -9 -20 -7 4
0 44 7 44 2 0 3 -11 2 -24z m-1 -75 c0 -11 -5 -18 -9 -15 -4 3 -5 11 -1 19 7
21 12 19 10 -4z m0 -53 c-3 -8 -6 -5 -6 6 -1 11 2 17 5 13 3 -3 4 -12 1 -19z
m3 -28 c0 -5 -2 -10 -4 -10 -3 0 -8 5 -11 10 -3 6 -1 10 4 10 6 0 11 -4 11
-10z m-3 -39 c0 -11 -5 -18 -9 -15 -4 3 -5 11 -1 19 7 21 12 19 10 -4z m1 -60
c-1 -16 -5 -28 -9 -26 -6 5 0 55 7 55 3 0 3 -13 2 -29z m2 -101 c0 -5 -2 -10
-4 -10 -3 0 -8 5 -11 10 -3 6 -1 10 4 10 6 0 11 -4 11 -10z m-3 -52 c-3 -7 -5
-2 -5 12 0 14 2 19 5 13 2 -7 2 -19 0 -25z m1643 -15 c0 -21 -3 -24 -9 -14 -5
8 -7 20 -4 28 8 21 13 15 13 -14z m-3 -65 c-3 -7 -5 -2 -5 12 0 14 2 19 5 13
2 -7 2 -19 0 -25z m-11 -85 c-2 -16 -5 -34 -5 -41 -1 -7 -5 -11 -9 -8 -11 7
-2 76 9 76 6 0 8 -12 5 -27z m994 -108 c0 -8 -2 -15 -4 -15 -2 0 -6 7 -10 15
-3 8 -1 15 4 15 6 0 10 -7 10 -15z m0 -46 c0 -11 -4 -18 -10 -14 -5 3 -7 12
-3 20 7 21 13 19 13 -6z m-387 -24 c-5 -13 -23 -22 -23 -11 0 15 14 35 21 31
4 -3 6 -12 2 -20z m387 -21 c0 -8 -5 -12 -10 -9 -6 4 -8 11 -5 16 9 14 15 11
15 -7z m-404 -30 c-3 -9 -6 -18 -6 -20 0 -2 -4 -4 -9 -4 -5 0 -7 9 -4 20 3 11
10 20 15 20 6 0 7 -7 4 -16z m404 -64 c0 -11 -4 -20 -8 -20 -4 0 -8 9 -8 20 0
11 4 20 8 20 4 0 8 -9 8 -20z m-433 -14 c-8 -7 -17 -23 -19 -36 -1 -14 -6 -20
-10 -15 -10 16 20 78 33 69 9 -5 8 -10 -4 -18z m433 -42 c0 -8 -5 -12 -10 -9
-6 4 -8 11 -5 16 9 14 15 11 15 -7z m-470 -29 c0 -8 -4 -15 -10 -15 -5 0 -7 7
-4 15 4 8 8 15 10 15 2 0 4 -7 4 -15z m470 -16 c0 -11 -4 -18 -10 -14 -5 3 -7
12 -3 20 7 21 13 19 13 -6z m-486 -24 c3 -9 0 -15 -9 -15 -9 0 -12 6 -9 15 4
8 7 15 9 15 2 0 5 -7 9 -15z m486 -21 c0 -8 -5 -12 -10 -9 -6 4 -8 11 -5 16 9
14 15 11 15 -7z m-526 -34 c-9 -16 -19 -32 -24 -35 -8 -5 4 23 23 53 15 23 16
12 1 -18z m526 -60 c0 -11 -4 -20 -8 -20 -4 0 -8 9 -8 20 0 11 4 20 8 20 4 0
8 -9 8 -20z m-570 1 c0 -5 -9 -19 -21 -32 l-20 -24 17 33 c19 33 24 38 24 23z
m570 -57 c0 -8 -5 -12 -10 -9 -6 4 -8 11 -5 16 9 14 15 11 15 -7z m-627 -19
c-3 -9 -8 -14 -10 -11 -3 3 -2 9 2 15 9 16 15 13 8 -4z m627 -26 c0 -11 -4
-18 -10 -14 -5 3 -7 12 -3 20 7 21 13 19 13 -6z m0 -45 c0 -8 -5 -12 -10 -9
-6 4 -8 11 -5 16 9 14 15 11 15 -7z"/>
</g>
</svg>
